<svg version="1.2" xmlns="http://www.w3.org/2000/svg" viewBox="0 0 660 660" width="660" height="660">
	<title>20210729_raksul_mark_black_CMYK-ai</title>
	<style>
		.s0 { fill: #000000 } 
	</style>
	<g id="レイヤー 1">
		<path id="&lt;Compound Path&gt;" fill-rule="evenodd" class="s0" d="m550 329.4c0 122.1-98.1 220.6-219.4 220.6-122.1 0-220.6-98.5-220.6-220.6 0-121.3 98.5-219.4 220.6-219.4 121.3 0 219.4 98.1 219.4 219.4zm-396.6-38.7l147.8-78.4v-60.8c-73.7 11.9-132.2 67.4-147.8 139.2zm35.6 152.4l26.3-33.9v-109.8l-66 34.1c0.9 41.6 15.6 79.6 39.7 109.6zm141.6 67.7c41.3 0 79.3-13.8 109.6-37.2l-83.3-122.7-41.8 41.6c-5.5 5.5-13.9 0-13.9-5.9v-131.2l-37.5 20.7v143.9l51.1 12.7 27.2-17 13.9 16.8-40.4 43.8c-3 3.4-8 4.2-11.8 3.4l-107-27.6c33.1 36.1 80.7 58.7 133.9 58.7zm180.2-181.4c0-97.3-76.3-176.1-172.6-180.1v43.4l18.5-9.9c3.8-2.1 8-0.8 10.6 1.3l80.8 60.2c5.1 3.8 5.1 10.5 1.3 14.3l-56.8 56.7 86.9 116.6c19.8-29.1 31.3-64.4 31.3-102.5zm-172.6-94.5v88.6l56-54.1-48.7-38.5z"/>
	</g>
</svg>