<svg version="1.2" xmlns="http://www.w3.org/2000/svg" viewBox="0 0 660 660" width="660" height="660">
	<title>20210729_raksul_mark_white_CMYK-ai</title>
	<style>
		.s0 { fill: #fefefe } 
	</style>
	<g id="レイヤー 1">
		<g id="&lt;Group&gt;">
			<path id="&lt;Compound Path&gt;" fill-rule="evenodd" class="s0" d="m330.6 550c-29.8 0-58.7-5.8-86-17.3-26.2-11.1-49.8-27-70.1-47.2-20.2-20.3-36.1-43.9-47.2-70.1-11.5-27.3-17.3-56.2-17.3-86 0-29.7 5.8-58.4 17.3-85.5 11.1-26.1 27-49.6 47.2-69.7 20.3-20.1 43.9-35.9 70.1-47 27.3-11.4 56.2-17.2 86-17.2 29.7 0 58.4 5.8 85.5 17.2 26.1 11.1 49.6 26.9 69.7 47 20.1 20.1 35.9 43.6 47 69.7 11.4 27.1 17.2 55.8 17.2 85.5 0 29.8-5.8 58.7-17.2 86-11.1 26.2-26.9 49.8-47 70.1-20.1 20.2-43.6 36.1-69.7 47.2-27.1 11.5-55.8 17.3-85.5 17.3zm-136.7-95.5c17.2 18.8 37.6 33.5 60.7 43.9 23.9 10.7 49.5 16.1 76 16.1 20.7 0 40.9-3.4 60.1-10 18.7-6.5 36.1-15.9 51.7-27.9l1.5-1.2-86.5-127.5-43.9 43.8q-1.7 1.7-3.9 1.7c-3.3 0-6.7-3.2-6.7-6.3v-135.8l-41.8 23.1v147.9l53.9 13.5 26.7-16.7 11.8 14.3-39.7 42.9c-1.6 1.9-4.4 3-7.5 3q-1.2 0-2.4-0.2l-114.5-29.5zm22.3-44v-114.7l-70.7 36.4v1.3c0.4 20.8 4.3 41.1 11.4 60.3 6.9 18.7 16.7 36 29.2 51.6zm144.9-228.2c1.8 0 3.7 0.7 5.2 1.9l81.6 60.8c1.9 1.4 3.1 3.4 3.2 5.7 0.2 2.1-0.6 4.2-2.1 5.7l-58.6 58.4 90.5 121.4 1.6-2.3c20.9-30.8 32-67 32-104.7 0-47.9-18.2-93.2-51.3-127.5-32.9-34.3-77.3-54.2-124.9-56.2l-2.1-0.1v49.2l21.7-11.5q1.5-0.8 3.2-0.8zm-24.9 50.4v95.3l61.6-59.4-52-41.2zm-35.7-85c-36.8 6-70.5 22.6-97.6 48.1-26.9 25.5-45.3 58-53.2 94l-0.9 4.2 154.1-81.7v-64.9z"/>
		</g>
	</g>
</svg>